<svg width="27" height="28" viewBox="0 0 27 28" fill="none" xmlns="http://www.w3.org/2000/svg">
<path d="M22.5 9.64606L15.75 3.72856C15.1312 3.17511 14.3302 2.86914 13.5 2.86914C12.6698 2.86914 11.8688 3.17511 11.25 3.72856L4.49998 9.64606C4.14265 9.96565 3.8575 10.3577 3.66352 10.7961C3.46953 11.2345 3.37117 11.7092 3.37498 12.1886V22.0211C3.37498 22.9162 3.73056 23.7746 4.3635 24.4075C4.99643 25.0405 5.85488 25.3961 6.74998 25.3961H20.25C21.1451 25.3961 22.0035 25.0405 22.6365 24.4075C23.2694 23.7746 23.625 22.9162 23.625 22.0211V12.1773C23.6272 11.6998 23.5281 11.2273 23.3341 10.791C23.1402 10.3546 22.8559 9.96439 22.5 9.64606V9.64606ZM15.75 23.1461H11.25V17.5211C11.25 17.2227 11.3685 16.9365 11.5795 16.7256C11.7905 16.5146 12.0766 16.3961 12.375 16.3961H14.625C14.9234 16.3961 15.2095 16.5146 15.4205 16.7256C15.6315 16.9365 15.75 17.2227 15.75 17.5211V23.1461ZM21.375 22.0211C21.375 22.3194 21.2565 22.6056 21.0455 22.8166C20.8345 23.0275 20.5484 23.1461 20.25 23.1461H18V17.5211C18 16.626 17.6444 15.7675 17.0115 15.1346C16.3785 14.5016 15.5201 14.1461 14.625 14.1461H12.375C11.4799 14.1461 10.6214 14.5016 9.9885 15.1346C9.35556 15.7675 8.99998 16.626 8.99998 17.5211V23.1461H6.74998C6.45162 23.1461 6.16547 23.0275 5.95449 22.8166C5.74351 22.6056 5.62498 22.3194 5.62498 22.0211V12.1773C5.62519 12.0176 5.6594 11.8597 5.72535 11.7142C5.79131 11.5688 5.88748 11.439 6.00748 11.3336L12.7575 5.42731C12.9628 5.24695 13.2267 5.14749 13.5 5.14749C13.7733 5.14749 14.0372 5.24695 14.2425 5.42731L20.9925 11.3336C21.1125 11.439 21.2087 11.5688 21.2746 11.7142C21.3406 11.8597 21.3748 12.0176 21.375 12.1773V22.0211Z" fill="#4F4F4F"/>
</svg>
