<svg width="31" height="30" viewBox="0 0 31 30" fill="none" xmlns="http://www.w3.org/2000/svg">
<rect x="0.5" width="30" height="30" rx="15" fill="#FFD5D5"/>
<path d="M12.7653 9.85994C12.2556 8.04776 13.6175 6.25 15.5 6.25C17.3825 6.25 18.7444 8.04776 18.2347 9.85994L16.6913 15.3475C16.6449 15.5125 16.6217 15.595 16.5897 15.6652C16.45 15.9713 16.1658 16.1866 15.8333 16.2382C15.7571 16.25 15.6714 16.25 15.5 16.25C15.3286 16.25 15.2429 16.25 15.1667 16.2382C14.8342 16.1866 14.55 15.9713 14.4103 15.6652C14.3783 15.595 14.3551 15.5125 14.3087 15.3475L12.7653 9.85994Z" fill="#FF5959" stroke="#FF5959" stroke-width="2"/>
<circle cx="15.5" cy="21.25" r="1.25" fill="#FF5959" stroke="#FF5959" stroke-width="2"/>
</svg>
