<svg width="27" height="28" viewBox="0 0 27 28" fill="none" xmlns="http://www.w3.org/2000/svg">
<path d="M22.6799 5.83216C21.4855 4.63742 19.902 3.91103 18.2173 3.78509C16.5326 3.65915 14.8587 4.14203 13.4999 5.14591C12.0686 4.08125 10.2869 3.59848 8.51385 3.79483C6.74077 3.99117 5.10794 4.85203 3.94416 6.20407C2.78039 7.5561 2.17212 9.29887 2.24185 11.0814C2.31157 12.864 3.05411 14.5539 4.31994 15.8109L12.7012 24.1922C12.8058 24.2976 12.9302 24.3813 13.0673 24.4384C13.2044 24.4955 13.3514 24.5249 13.4999 24.5249C13.6485 24.5249 13.7955 24.4955 13.9326 24.4384C14.0697 24.3813 14.1941 24.2976 14.2987 24.1922L22.6799 15.8109C23.3354 15.1558 23.8554 14.378 24.2102 13.5219C24.565 12.6658 24.7476 11.7482 24.7476 10.8215C24.7476 9.89484 24.565 8.97722 24.2102 8.12112C23.8554 7.26502 23.3354 6.48722 22.6799 5.83216V5.83216ZM21.0937 14.2247L13.4999 21.8072L5.90619 14.2247C5.23702 13.5527 4.78116 12.6981 4.59583 11.768C4.41049 10.838 4.50392 9.87393 4.86439 8.99678C5.22486 8.11962 5.83633 7.36845 6.62208 6.83748C7.40784 6.30652 8.33289 6.0194 9.28119 6.01216C10.5481 6.01526 11.7619 6.52104 12.6562 7.41841C12.7608 7.52385 12.8852 7.60755 13.0223 7.66466C13.1594 7.72178 13.3064 7.75118 13.4549 7.75118C13.6035 7.75118 13.7505 7.72178 13.8876 7.66466C14.0247 7.60755 14.1491 7.52385 14.2537 7.41841C15.1743 6.62065 16.3636 6.20245 17.5809 6.24844C18.7982 6.29443 19.9526 6.80117 20.8104 7.66612C21.6682 8.53107 22.1654 9.6896 22.2012 10.9072C22.2371 12.1249 21.8091 13.3107 21.0037 14.2247H21.0937Z" fill="#4F4F4F"/>
</svg>
