<svg width="24" height="25" viewBox="0 0 24 25" fill="none" xmlns="http://www.w3.org/2000/svg">
<path d="M2.52992 14.54C2.31727 15.8931 3.268 16.8322 4.43205 17.3002C8.89481 19.0946 15.1052 19.0946 19.5679 17.3002C20.732 16.8322 21.6827 15.8931 21.4701 14.54C21.3394 13.7085 20.6932 13.0161 20.2144 12.34C19.5873 11.4435 19.525 10.4657 19.5249 9.42541C19.5249 5.4051 16.1559 2.146 12 2.146C7.84413 2.146 4.47513 5.4051 4.47513 9.42541C4.47503 10.4657 4.41272 11.4435 3.78561 12.34C3.30684 13.0161 2.66061 13.7085 2.52992 14.54Z" stroke="#4F4F4F" stroke-width="1.5" stroke-linecap="round" stroke-linejoin="round"/>
<path d="M9 21.146C9.79613 21.7679 10.8475 22.146 12 22.146C13.1525 22.146 14.2039 21.7679 15 21.146" stroke="#4F4F4F" stroke-width="1.5" stroke-linecap="round" stroke-linejoin="round"/>
</svg>
