<svg width="27" height="28" viewBox="0 0 27 28" fill="none" xmlns="http://www.w3.org/2000/svg">
<path d="M23.1863 22.2348C23.8913 21.2898 24.3751 20.1985 24.602 19.0414C24.8289 17.8844 24.7931 16.6912 24.4973 15.5498C24.2014 14.4085 23.653 13.3481 22.8926 12.4471C22.1322 11.546 21.1791 10.8271 20.1038 10.3436C19.8695 8.99595 19.3312 7.71943 18.5297 6.61103C17.7282 5.50262 16.6846 4.59149 15.4781 3.94687C14.2717 3.30225 12.9342 2.94109 11.5673 2.89084C10.2004 2.84059 8.84001 3.10257 7.58952 3.65688C6.33903 4.21119 5.23133 5.04323 4.3506 6.0898C3.46987 7.13636 2.83927 8.36991 2.50672 9.69671C2.17418 11.0235 2.14843 12.4087 2.43144 13.7469C2.71445 15.0851 3.29877 16.3413 4.14001 17.4198L2.57626 18.9723C2.42015 19.1305 2.31441 19.3314 2.27236 19.5497C2.23032 19.7679 2.25385 19.9937 2.34001 20.1986C2.4244 20.404 2.56773 20.5799 2.75191 20.704C2.9361 20.8282 3.1529 20.895 3.37501 20.8961H9.77626C10.4137 22.24 11.4188 23.3759 12.6751 24.1723C13.9314 24.9687 15.3876 25.393 16.875 25.3961H23.625C23.8471 25.395 24.0639 25.3282 24.2481 25.204C24.4323 25.0799 24.5756 24.904 24.66 24.6986C24.7462 24.4937 24.7697 24.2679 24.7277 24.0497C24.6856 23.8314 24.5799 23.6305 24.4238 23.4723L23.1863 22.2348ZM9.00001 17.5211C9.00155 17.8978 9.03164 18.2739 9.09001 18.6461H6.08626L6.48001 18.2636C6.58545 18.159 6.66914 18.0346 6.72626 17.8975C6.78337 17.7604 6.81278 17.6133 6.81278 17.4648C6.81278 17.3163 6.78337 17.1693 6.72626 17.0322C6.66914 16.8951 6.58545 16.7707 6.48001 16.6661C5.84951 16.0425 5.34966 15.2995 5.00969 14.4805C4.66972 13.6614 4.49645 12.7829 4.50001 11.8961C4.50001 10.1059 5.21116 8.38899 6.47703 7.12312C7.74291 5.85725 9.4598 5.14609 11.25 5.14609C12.6469 5.13769 14.0113 5.56727 15.1514 6.37443C16.2915 7.1816 17.15 8.32576 17.6063 9.64609C17.3588 9.64609 17.1225 9.64609 16.875 9.64609C14.7864 9.64609 12.7834 10.4758 11.3065 11.9526C9.82969 13.4295 9.00001 15.4325 9.00001 17.5211ZM20.8575 23.1461L20.9138 23.2023H16.875C15.5738 23.2 14.3136 22.7466 13.3091 21.9194C12.3047 21.0922 11.6181 19.9423 11.3663 18.6656C11.1146 17.3889 11.3132 16.0645 11.9285 14.9179C12.5437 13.7712 13.5374 12.8734 14.7404 12.3772C15.9433 11.8811 17.2811 11.8174 18.5258 12.1969C19.7704 12.5765 20.845 13.3758 21.5664 14.4588C22.2878 15.5417 22.6115 16.8413 22.4822 18.1361C22.353 19.4309 21.7788 20.6409 20.8575 21.5598C20.6455 21.7675 20.5242 22.0506 20.52 22.3473C20.5206 22.4962 20.5508 22.6434 20.6087 22.7805C20.6666 22.9176 20.7512 23.0419 20.8575 23.1461V23.1461Z" fill="#4F4F4F"/>
</svg>
