<svg width="130" height="41" viewBox="0 0 130 41" fill="none" xmlns="http://www.w3.org/2000/svg">
<path fill-rule="evenodd" clip-rule="evenodd" d="M119 39.4286C119 39.4286 130 25.9143 130 18.6857C130 12.7842 125.075 8 119 8C112.925 8 108 12.7842 108 18.6857C108 25.9143 119 39.4286 119 39.4286ZM119 25.2857C122.038 25.2857 124.5 22.8233 124.5 19.7857C124.5 16.7481 122.038 14.2857 119 14.2857C115.962 14.2857 113.5 16.7481 113.5 19.7857C113.5 22.8233 115.962 25.2857 119 25.2857Z" fill="#2F80ED"/>
<path d="M13.2104 14.05L11.8804 33.475C11.8571 33.825 11.7288 34 11.4954 34H9.57045C8.26378 34 7.33045 33.7433 6.77045 33.23C6.21045 32.7167 5.93045 31.9817 5.93045 31.025C5.93045 30.675 5.94211 30.15 5.96545 29.45C6.01211 28.75 6.07045 27.9333 6.14045 27C6.21045 26.0433 6.28045 25.0167 6.35045 23.92C6.44378 22.8 6.53711 21.68 6.63045 20.56C6.72378 19.4167 6.80545 18.285 6.87545 17.165C6.96878 16.045 7.05045 15.0067 7.12045 14.05H1.52045C1.26378 14.05 1.13545 13.8867 1.13545 13.56L1.24045 11.6C1.26378 11.2967 1.31045 11.005 1.38045 10.725C1.47378 10.4217 1.61378 10.1533 1.80045 9.92C1.98711 9.68666 2.22045 9.5 2.50045 9.36C2.80378 9.22 3.16545 9.15 3.58545 9.15H19.2304C19.3704 9.15 19.4988 9.185 19.6154 9.255C19.7321 9.325 19.7904 9.45333 19.7904 9.64L19.6504 11.705C19.6038 12.405 19.4054 12.9767 19.0554 13.42C18.7288 13.84 18.0404 14.05 16.9904 14.05H13.2104ZM30.4963 23.115C30.3563 23.115 30.193 23.115 30.0063 23.115C29.843 23.0917 29.6797 23.0683 29.5163 23.045C29.353 22.9983 29.213 22.9517 29.0963 22.905C28.9797 22.835 28.9213 22.7533 28.9213 22.66C28.9213 22.3567 28.933 22.0767 28.9563 21.82C28.9797 21.5633 28.9913 21.295 28.9913 21.015C28.9913 20.5017 28.9213 20.0817 28.7813 19.755C28.6413 19.4283 28.3613 19.265 27.9413 19.265C27.288 19.265 26.7397 19.6967 26.2963 20.56C25.8763 21.4 25.608 22.6717 25.4913 24.375C25.4447 25.1217 25.3747 25.9733 25.2813 26.93C25.2113 27.8633 25.1413 28.7733 25.0713 29.66C25.0013 30.5233 24.943 31.2933 24.8963 31.97C24.8497 32.6467 24.8263 33.09 24.8263 33.3C24.8263 33.5333 24.7447 33.7083 24.5813 33.825C24.418 33.9417 24.243 34 24.0563 34H22.7963C22.073 34 21.478 33.93 21.0113 33.79C20.568 33.6267 20.2063 33.405 19.9263 33.125C19.6697 32.845 19.483 32.5067 19.3663 32.11C19.273 31.69 19.2263 31.2117 19.2263 30.675C19.2263 30.325 19.238 29.835 19.2613 29.205C19.308 28.5517 19.378 27.665 19.4713 26.545C19.5647 25.4017 19.6697 23.9667 19.7863 22.24C19.9263 20.49 20.0897 18.3317 20.2763 15.765C20.323 15.0883 20.568 14.75 21.0113 14.75H22.3763C23.0297 14.75 23.578 14.82 24.0213 14.96C24.4647 15.1 24.8263 15.2983 25.1063 15.555C25.3863 15.7883 25.5847 16.0683 25.7013 16.395C25.8413 16.7217 25.9347 17.06 25.9813 17.41C26.2613 16.8733 26.588 16.4183 26.9613 16.045C27.358 15.6483 27.7663 15.3333 28.1863 15.1C28.6063 14.8433 29.038 14.6683 29.4813 14.575C29.9247 14.4583 30.333 14.4 30.7063 14.4C31.1497 14.4 31.593 14.4817 32.0363 14.645C32.503 14.8083 32.923 15.0533 33.2963 15.38C33.6697 15.7067 33.9613 16.1267 34.1713 16.64C34.4047 17.1533 34.5213 17.76 34.5213 18.46C34.5213 19.09 34.428 19.685 34.2413 20.245C34.0547 20.805 33.7863 21.3067 33.4363 21.75C33.0863 22.17 32.6547 22.5083 32.1413 22.765C31.6513 22.9983 31.103 23.115 30.4963 23.115ZM39.5444 34C38.8211 34 38.2261 33.93 37.7594 33.79C37.3161 33.6267 36.9544 33.405 36.6744 33.125C36.4177 32.845 36.2311 32.5067 36.1144 32.11C36.0211 31.69 35.9744 31.2117 35.9744 30.675C35.9744 30.325 35.9861 29.835 36.0094 29.205C36.0561 28.5517 36.1261 27.665 36.2194 26.545C36.3127 25.4017 36.4177 23.9667 36.5344 22.24C36.6744 20.49 36.8377 18.3317 37.0244 15.765C37.0477 15.2517 37.1061 14.9483 37.1994 14.855C37.2694 14.785 37.4561 14.75 37.7594 14.75H39.1244C39.8477 14.75 40.4311 14.82 40.8744 14.96C41.3411 15.1 41.7027 15.31 41.9594 15.59C42.2394 15.87 42.4261 16.2083 42.5194 16.605C42.6361 17.0017 42.6944 17.445 42.6944 17.935C42.6944 18.285 42.6711 18.81 42.6244 19.51C42.5777 20.21 42.5077 21.1667 42.4144 22.38C42.3444 23.57 42.2394 25.0633 42.0994 26.86C41.9594 28.6333 41.7844 30.78 41.5744 33.3C41.5511 33.58 41.4927 33.7667 41.3994 33.86C41.3061 33.9533 41.1077 34 40.8044 34H39.5444ZM37.0594 10.62C37.0594 9.68666 37.3977 8.95166 38.0744 8.415C38.7511 7.87833 39.6611 7.61 40.8044 7.61C41.8077 7.61 42.5311 7.82 42.9744 8.24C43.4411 8.63666 43.6744 9.17333 43.6744 9.85C43.6744 10.7133 43.3477 11.4367 42.6944 12.02C42.0644 12.58 41.1311 12.86 39.8944 12.86C38.0044 12.86 37.0594 12.1133 37.0594 10.62ZM57.8931 14.4C60.0865 14.4 61.7315 15.0767 62.8281 16.43C63.9481 17.7833 64.5081 19.9183 64.5081 22.835C64.5081 24.655 64.2981 26.2767 63.8781 27.7C63.4581 29.1233 62.8748 30.3367 62.1281 31.34C61.3815 32.32 60.5065 33.0667 59.5031 33.58C58.4998 34.0933 57.4148 34.35 56.2481 34.35C55.0115 34.35 54.0431 34.0817 53.3431 33.545C52.6431 33.0083 52.0948 32.25 51.6981 31.27C51.6281 32.11 51.5698 32.7517 51.5231 33.195C51.4765 33.6383 51.4415 33.9883 51.4181 34.245C51.3948 34.525 51.3715 34.77 51.3481 34.98C51.3481 35.19 51.3248 35.47 51.2781 35.82C51.2548 36.17 51.2198 36.6483 51.1731 37.255C51.1265 37.8617 51.0565 38.7017 50.9631 39.775C50.9398 40.055 50.8815 40.2417 50.7881 40.335C50.6948 40.4283 50.4965 40.475 50.1931 40.475H48.9331C48.2098 40.475 47.6148 40.3933 47.1481 40.23C46.7048 40.09 46.3431 39.88 46.0631 39.6C45.8065 39.32 45.6198 38.97 45.5031 38.55C45.4098 38.1533 45.3631 37.6867 45.3631 37.15C45.3631 36.9167 45.3981 36.2867 45.4681 35.26C45.5381 34.2333 45.6198 33.0083 45.7131 31.585C45.8298 30.1383 45.9465 28.5867 46.0631 26.93C46.2031 25.2733 46.3315 23.6983 46.4481 22.205C46.5648 20.6883 46.6581 19.3467 46.7281 18.18C46.8215 17.0133 46.8915 16.2083 46.9381 15.765C46.9615 15.2517 47.0198 14.9483 47.1131 14.855C47.1831 14.785 47.3698 14.75 47.6731 14.75H49.0381C50.2981 14.75 51.2081 15.0183 51.7681 15.555C52.3515 16.0683 52.6431 16.6867 52.6431 17.41C53.1798 16.3367 53.8681 15.5667 54.7081 15.1C55.5715 14.6333 56.6331 14.4 57.8931 14.4ZM55.3381 19.055C54.1481 19.055 53.2731 19.5683 52.7131 20.595C52.1531 21.6217 51.8731 23.0217 51.8731 24.795C51.8731 25.4017 51.9081 25.9967 51.9781 26.58C52.0715 27.1633 52.2231 27.6883 52.4331 28.155C52.6431 28.6217 52.9231 28.995 53.2731 29.275C53.6465 29.555 54.1131 29.695 54.6731 29.695C55.6765 29.695 56.5165 29.205 57.1931 28.225C57.8698 27.245 58.2081 25.705 58.2081 23.605C58.2081 23.0217 58.1615 22.4617 58.0681 21.925C57.9981 21.365 57.8581 20.875 57.6481 20.455C57.4381 20.035 57.1465 19.6967 56.7731 19.44C56.3998 19.1833 55.9215 19.055 55.3381 19.055ZM86.7129 22.59C86.6429 23.29 86.5379 24.0717 86.3979 24.935C86.2579 25.775 86.0362 26.6383 85.7329 27.525C85.4529 28.3883 85.0679 29.2283 84.5779 30.045C84.0879 30.8617 83.4579 31.5967 82.6879 32.25C81.9179 32.88 80.9846 33.3933 79.8879 33.79C78.8146 34.1633 77.5312 34.35 76.0379 34.35C74.5212 34.35 73.2262 34.14 72.1529 33.72C71.0796 33.2767 70.2046 32.6817 69.5279 31.935C68.8512 31.165 68.3612 30.2783 68.0579 29.275C67.7546 28.2717 67.6029 27.1983 67.6029 26.055C67.6029 25.5417 67.6262 24.8533 67.6729 23.99C67.7196 23.1033 67.7779 22.1467 67.8479 21.12C67.9412 20.0933 68.0346 19.0317 68.1279 17.935C68.2212 16.815 68.3029 15.7533 68.3729 14.75C68.4662 13.7467 68.5479 12.8483 68.6179 12.055C68.6879 11.2383 68.7346 10.62 68.7579 10.2C68.7812 9.75666 68.8396 9.47666 68.9329 9.36C69.0262 9.22 69.1662 9.15 69.3529 9.15H71.2779C72.7012 9.15 73.6579 9.45333 74.1479 10.06C74.6379 10.6667 74.8829 11.565 74.8829 12.755C74.8829 12.825 74.8596 13.14 74.8129 13.7C74.7896 14.2367 74.7429 14.9017 74.6729 15.695C74.6262 16.4883 74.5679 17.3517 74.4979 18.285C74.4512 19.2183 74.3929 20.105 74.3229 20.945C74.2762 21.785 74.2296 22.52 74.1829 23.15C74.1596 23.78 74.1479 24.2 74.1479 24.41C74.1479 24.8067 74.1596 25.2617 74.1829 25.775C74.2296 26.2883 74.3229 26.7783 74.4629 27.245C74.6262 27.7117 74.8712 28.1083 75.1979 28.435C75.5479 28.7383 76.0379 28.89 76.6679 28.89C77.4612 28.89 78.1029 28.6217 78.5929 28.085C79.1062 27.5483 79.4912 26.9067 79.7479 26.16C80.0279 25.4133 80.2146 24.655 80.3079 23.885C80.4246 23.115 80.5062 22.485 80.5529 21.995C80.6462 20.805 80.7396 19.58 80.8329 18.32C80.9496 17.06 81.0429 15.8817 81.1129 14.785C81.2062 13.6883 81.2762 12.7317 81.3229 11.915C81.3696 11.0983 81.3929 10.5383 81.3929 10.235C81.3929 9.76833 81.4279 9.47666 81.4979 9.36C81.5679 9.22 81.7196 9.15 81.9529 9.15H83.8779C84.6712 9.15 85.2896 9.22 85.7329 9.36C86.1996 9.5 86.5496 9.68666 86.7829 9.92C87.0162 10.1533 87.1562 10.4217 87.2029 10.725C87.2729 11.0283 87.3079 11.3433 87.3079 11.67C87.3079 11.9733 87.2846 12.545 87.2379 13.385C87.2146 14.225 87.1796 15.1817 87.1329 16.255C87.0862 17.3283 87.0279 18.4367 86.9579 19.58C86.8879 20.7233 86.8062 21.7267 86.7129 22.59ZM98.0641 14.4C100.047 14.4 101.506 14.7967 102.439 15.59C103.372 16.36 103.839 17.3517 103.839 18.565C103.839 19.5917 103.512 20.3733 102.859 20.91C102.229 21.4467 101.307 21.715 100.094 21.715C99.7675 21.715 99.5458 21.68 99.4291 21.61C99.3125 21.54 99.2541 21.4117 99.2541 21.225C99.2541 21.015 99.2308 20.7817 99.1841 20.525C99.1608 20.245 99.0791 19.9883 98.9391 19.755C98.8225 19.4983 98.6241 19.2883 98.3441 19.125C98.0875 18.9617 97.7141 18.88 97.2241 18.88C96.5708 18.88 96.0458 19.0433 95.6491 19.37C95.2525 19.6733 95.0541 20.0583 95.0541 20.525C95.0541 21.015 95.2525 21.4117 95.6491 21.715C96.0691 21.995 96.5825 22.2633 97.1891 22.52C97.8191 22.7767 98.4958 23.045 99.2191 23.325C99.9425 23.5817 100.607 23.9317 101.214 24.375C101.844 24.8183 102.357 25.3783 102.754 26.055C103.174 26.7083 103.384 27.56 103.384 28.61C103.384 30.29 102.789 31.6667 101.599 32.74C100.409 33.8133 98.6241 34.35 96.2441 34.35C95.5908 34.35 94.8325 34.2917 93.9691 34.175C93.1291 34.0817 92.3241 33.93 91.5541 33.72C90.7841 33.4867 90.1308 33.1833 89.5941 32.81C89.0808 32.4367 88.8241 31.97 88.8241 31.41C88.8241 31.2 88.8591 30.9433 88.9291 30.64C89.0225 30.3367 89.1508 30.045 89.3141 29.765C89.5008 29.485 89.7108 29.2517 89.9441 29.065C90.2008 28.855 90.5041 28.75 90.8541 28.75C91.1341 28.75 91.3908 28.82 91.6241 28.96C91.8575 29.1 92.1258 29.2517 92.4291 29.415C92.7558 29.555 93.1525 29.695 93.6191 29.835C94.0858 29.975 94.7041 30.045 95.4741 30.045C96.0575 30.045 96.5708 29.975 97.0141 29.835C97.4808 29.695 97.7141 29.38 97.7141 28.89C97.7141 28.4467 97.5275 28.0967 97.1541 27.84C96.7808 27.56 96.3025 27.3033 95.7191 27.07C95.1591 26.8367 94.5408 26.5917 93.8641 26.335C93.2108 26.055 92.5925 25.6933 92.0091 25.25C91.4491 24.8067 90.9825 24.2467 90.6091 23.57C90.2358 22.87 90.0491 21.9717 90.0491 20.875C90.0491 19.685 90.2825 18.6817 90.7491 17.865C91.2391 17.025 91.8575 16.3483 92.6041 15.835C93.3741 15.3217 94.2375 14.96 95.1941 14.75C96.1508 14.5167 97.1075 14.4 98.0641 14.4Z" fill="black"/>
</svg>
